{"title":"Vikings S04E01 REPACK 720p HDTV x264-KILLERS[rartv]","uid":13608767,"size":1205661380,"categoryP":"video","categoryS":"hd___tv_shows","magnet":"?xt=urn:btih:eb313c35b571513711857fec86c7231d63d50e88&amp;dn=Vikings+S04E01+REPACK+720p+HDTV+x264-KILLERS%5Brartv%5D&amp;tr=udp%3A%2F%2Ftracker.leechers-paradise.org%3A6969&amp;tr=udp%3A%2F%2Fzer0day.ch%3A1337&amp;tr=udp%3A%2F%2Fopen.demonii.com%3A1337&amp;tr=udp%3A%2F%2Ftracker.coppersurfer.tk%3A6969&amp;tr=udp%3A%2F%2Fexodus.desync.com%3A6969","seeders":14,"leechers":3,"uploader":"roflcopter2110","files":3,"time":1455909166,"description":"Vikings.S04E01.REPACK.720p.HDTV.x264-KILLERS[rartv]\r\n\r\nMediainfo :\r\n\r\nVideo\r\nID : 1\r\nFormat : AVC\r\nFormat/Info : Advanced Video Codec\r\nFormat profile :   \r\nFormat settings, CABAC : Yes\r\nFormat settings, ReFrames : 5 frames\r\nCodec ID : V_MPEG4/ISO/AVC\r\nDuration : 46mn 2s\r\nBit rate : 3 038 Kbps\r\nWidth : 1 280 pixels\r\nHeight : 720 pixels\r\nDisplay aspect ratio : 16:9\r\nFrame rate mode : Constant\r\nFrame rate : 23.976 (24000/1001) fps\r\nColor space : YUV\r\nChroma subsampling : 4:2:0\r\nBit depth : 8 bits\r\nScan type : Progressive\r\nBits/(Pixel*Frame) : 0.137\r\nStream size : 1 000 MiB (87%)\r\nWriting library : x264 core 148 r2665 a01e339\r\nEncoding settings : cabac=1 / ref=5 / deblock=1:0:0 / analyse=0x3:0x113 / me=umh / subme=8 / psy=1 / psy_rd=1.00:0.00 / mixed_ref=1 / me_range=16 / chroma_me=1 / trellis=1 / 8x8dct=1 / cqm=0 / deadzone=21,11 / fast_pskip=1 / chroma_qp_offset=-2 / threads=22 / lookahead_threads=3 / sliced_threads=0 / nr=0 / decimate=1 / interlaced=0 / bluray_compat=0 / constrained_intra=0 / bframes=3 / b_pyramid=2 / b_adapt=2 / b_bias=0 / direct=3 / weightb=1 / open_gop=0 / weightp=2 / keyint=250 / keyint_min=23 / scenecut=40 / intra_refresh=0 / rc_lookahead=50 / rc=crf / mbtree=1 / crf=18.0 / qcomp=0.60 / qpmin=0 / qpmax=69 / qpstep=4 / ip_ratio=1.40 / aq=1:1.00\r\nLanguage : English\r\nDefault : Yes\r\nForced : No\r\nColor range : Limited\r\nMatrix coefficients : BT.709\r\n\r\nAudio\r\nID : 2\r\nFormat : AC-3\r\nFormat/Info : Audio Coding 3\r\nMode extension : CM (complete main)\r\nFormat settings, Endianness : Big\r\nCodec ID : A_AC3\r\nDuration : 46mn 2s\r\nBit rate mode : Constant\r\nBit rate : 384 Kbps\r\nChannel(s) : 6 channels\r\nChannel positions : Front: L C R, Side: L R, LFE\r\nSampling rate : 48.0 KHz\r\nFrame rate : 31.250 fps (1536 spf)\r\nCompression mode : Lossy\r\nStream size : 126 MiB (11%)\r\nDefault : Yes\r\nForced : No","torrent":{"xt":"urn:btih:eb313c35b571513711857fec86c7231d63d50e88","amp;dn":"Vikings+S04E01+REPACK+720p+HDTV+x264-KILLERS%5Brartv%5D","amp;tr":["udp%3A%2F%2Ftracker.leechers-paradise.org%3A6969","udp%3A%2F%2Fzer0day.ch%3A1337","udp%3A%2F%2Fopen.demonii.com%3A1337","udp%3A%2F%2Ftracker.coppersurfer.tk%3A6969","udp%3A%2F%2Fexodus.desync.com%3A6969"],"infoHash":"eb313c35b571513711857fec86c7231d63d50e88","infoHashBuffer":{"type":"Buffer","data":[235,49,60,53,181,113,81,55,17,133,127,236,134,199,35,29,99,213,14,136]},"announce":[],"urlList":[]}}